#!OML:ASF E:\acrobat2\Project_11_07_03\Capture day 1\Session 1\Acrobat.ASF
:FULLY-SPECIFIED
:DEGREES
681
root 12.0538 23.1209 23.0628 360.956 -5.59933 -3.54488
lowerback 1.43388 -0.0161037 3.44688
upperback -2.73874 0.0921752 0.09546
thorax -3.62091 -0.0494361 -1.83752
lowerneck -1.66383 -2.58308 -2.36304
upperneck 2.22762 -3.5085 4.69199
head 1.11117 -1.71549 1.81723
rclavicle 1.55301e-014 -1.19271e-015
rhumerus 88.9085 -32.6646 -52.5165
rradius 36.5593
rwrist -6.62553
rhand -31.5882 -27.2087
rfingers 7.12502
rthumb -4.85109 -57.1332
lclavicle 1.55301e-014 -1.19271e-015
lhumerus 85.5463 31.9869 36.7412
lradius 30.8375
lwrist 8.58054
lhand -48.421 -46.0727
lfingers 7.12502
lthumb -21.0729 -17.1978
rfemur -11.7241 -12.9803 13.3542
rtibia 46.504
rfoot 2.45852 -15.8087
rtoes 17.5064
lfemur -9.6219 10.0414 -5.78845
ltibia 37.1545
lfoot 4.73229 11.9266
ltoes 12.0578
682
root 12.0327 23.1397 23.0867 360.906 -5.5277 -3.47142
lowerback 1.95698 -0.0103878 3.37211
upperback -2.57225 0.110731 -0.0372039
thorax -3.74303 -0.0399658 -1.93434
lowerneck -1.92046 -2.56191 -2.36083
upperneck 2.22266 -3.48109 4.84548
head 1.15686 -1.69664 1.86446
rclavicle 2.06239e-015 3.57812e-015
rhumerus 88.7684 -32.9576 -52.4396
rradius 36.8361
rwrist -6.58082
rhand -31.5201 -27.073
rfingers 7.12502
rthumb -4.78538 -56.999
lclavicle 2.06239e-015 3.57812e-015
lhumerus 85.6447 32.0872 36.4098
lradius 31.0236
lwrist 8.67732
lhand -49.0647 -47.0237
lfingers 7.12502
lthumb -21.6912 -18.2188
rfemur -13.6469 -13.1871 13.5579
rtibia 49.3241
rfoot 0.670928 -14.5736
rtoes 15.6761
lfemur -11.8027 10.8083 -6.04444
ltibia 41.2217
lfoot 3.47356 11.9904
ltoes 12.841
683
root 12.0121 23.1426 23.1106 360.891 -5.45909 -3.43141
lowerback 2.47958 -0.00787523 3.34796
upperback -2.43413 0.12756 -0.137266
thorax -3.89462 -0.0331596 -2.02624
lowerneck -2.00325 -2.46911 -2.63384
upperneck 2.11346 -3.35538 5.25906
head 1.1481 -1.63082 2.04973
rclavicle 5.46658e-015 -8.74653e-015
rhumerus 88.6346 -33.2144 -52.3725
rradius 37.1642
rwrist -6.52992
rhand -31.3709 -27.0408
rfingers 7.12502
rthumb -4.6413 -56.9699
lclavicle 5.46658e-015 -8.74653e-015
lhumerus 85.7024 32.2214 36.1115
lradius 31.236
lwrist 8.83358
lhand -49.8321 -48.4808
lfingers 7.12502
lthumb -22.4279 -19.7629
rfemur -15.5433 -13.3224 13.8252
rtibia 51.7833
rfoot -1.11458 -13.0971
rtoes 13.4145
lfemur -13.9973 11.4562 -6.34203
ltibia 45.122
lfoot 2.05043 12.1666
ltoes 13.681
684
root 11.9926 23.13 23.1352 360.907 -5.40575 -3.43823
lowerback 3.00386 -0.0182045 3.38118
upperback -2.30386 0.131008 -0.197993
thorax -4.05632 -0.0343496 -2.10925
lowerneck -2.1214 -2.33837 -3.03336
upperneck 1.9754 -3.17527 5.77999
head 1.13825 -1.53723 2.29589
rclavicle 1.56543e-015 -3.57812e-015
rhumerus 88.5733 -33.4328 -52.3596
rradius 37.543
rwrist -6.52267
rhand -31.1795 -27.0115
rfingers 7.12502
rthumb -4.45649 -56.9447
lclavicle 1.56543e-015 -3.57812e-015
lhumerus 85.8087 32.3562 35.9968
lradius 31.4763
lwrist 8.99607
lhand -50.6117 -50.4206
lfingers 7.12502
lthumb -23.1761 -21.7949
rfemur -17.389 -13.3498 14.1606
rtibia 53.7999
rfoot -2.85869 -11.4521
rtoes 10.999
lfemur -16.166 12.0101 -6.65139
ltibia 48.7601
lfoot 0.456345 12.3355
ltoes 14.4428
685
root 11.9744 23.1031 23.1612 360.942 -5.37099 -3.48836
lowerback 3.53038 -0.0329074 3.46909
upperback -2.19666 0.13312 -0.233725
thorax -4.24356 -0.0382221 -2.19729
lowerneck -2.17827 -2.18839 -3.4772
upperneck 1.81479 -2.96681 6.30846
head 1.10832 -1.43082 2.55678
rclavicle 5.18083e-015 -1.59028e-015
rhumerus 88.5257 -33.6069 -52.3739
rradius 37.9757
rwrist -6.60715
rhand -30.9942 -26.9575
rfingers 7.12502
rthumb -4.27754 -56.8943
lclavicle 5.18083e-015 -1.59028e-015
lhumerus 85.9096 32.4498 35.9713
lradius 31.7735
lwrist 9.2708
lhand -51.3239 -52.9596
lfingers 7.12502
lthumb -23.8592 -24.4215
rfemur -19.1516 -13.2526 14.5472
rtibia 55.3208
rfoot -4.54435 -9.70385
rtoes 8.63572
lfemur -18.2687 12.4847 -6.96428
ltibia 52.0541
lfoot -1.31868 12.3308
ltoes 14.6624
